# File created by Blade
# Date/Time:  Wed Jan 21 14:58:10 2015
# Frame Rate: 120.000 fps
#------------------------------------------------------
:FULLY-SPECIFIED
:DEGREES
852
root 16.460584 35.228707 -22.174794 -163.664826 -62.323546 -193.950988
Spine -24.283029 57.776299 -20.744961
Head 12.925428 15.162730 1.633902
LeftShoulder -12.699306 -20.844798 17.916695
LeftArm -21.859703 4.059465 -18.078482
LeftForeArm 5.328257 0.000000 -4.657368
LeftHand -12.395668 0.000000 -3.185355
LeftHandThumb1 -26.253704 0.000000 33.147579
RightShoulder 9.810544 5.152076 -18.987374
RightArm 50.542213 7.781507 37.050237
RightForeArm -35.713682 -0.000000 7.826240
RightHand -7.131431 -0.000000 2.806736
RightHandThumb1 -24.326973 -0.000000 -32.862282
LeftUpLeg -12.644920 -30.304944 0.357970
LeftLeg 1.328457 -0.000000 -0.000000
LeftFoot -9.704252 5.845810 -14.026343
LeftToeBase 29.536860 -0.000000 -0.000000
RightUpLeg 11.260902 -32.571333 -6.801454
RightLeg -0.688520 -0.000000 0.000000
RightFoot -34.730925 -44.331562 26.956114
RightToeBase 20.434986 -0.000000 -0.000000
853
root 16.473515 35.238402 -22.169656 -164.160466 -61.561832 -193.467621
Spine -24.056349 57.519854 -20.367603
Head 12.994756 14.925637 1.609042
LeftShoulder -12.659921 -20.841612 17.875818
LeftArm -21.483355 3.780708 -17.832179
LeftForeArm 5.746372 -0.000000 -4.789016
LeftHand -12.201768 -0.000000 -3.115992
LeftHandThumb1 -26.253704 0.000000 33.147579
RightShoulder 9.650153 4.829540 -18.941157
RightArm 49.984652 8.123620 36.646063
RightForeArm -35.614382 -0.000000 7.857168
RightHand -6.881361 0.000000 2.940852
RightHandThumb1 -24.326973 -0.000000 -32.862282
LeftUpLeg -12.486268 -29.916430 0.361718
LeftLeg 1.268134 -0.000000 -0.000000
LeftFoot -9.828545 6.276188 -14.058406
LeftToeBase 29.583032 -0.000000 -0.000000
RightUpLeg 11.182976 -32.280881 -6.822935
RightLeg -0.756387 -0.000000 0.000000
RightFoot -34.480549 -43.962136 26.797977
RightToeBase 20.311782 -0.000000 -0.000000
854
root 16.487536 35.247767 -22.165966 -164.641274 -60.766280 -192.970232
Spine -23.863704 57.252467 -20.026029
Head 13.024071 14.737534 1.609088
LeftShoulder -12.585640 -20.876486 17.769154
LeftArm -21.195460 3.926127 -17.680513
LeftForeArm 5.660628 -0.000000 -4.791853
LeftHand -12.208774 -0.000000 -3.058130
LeftHandThumb1 -26.253704 0.000000 33.147579
RightShoulder 9.425772 4.620384 -18.872349
RightArm 49.463071 8.299034 36.223513
RightForeArm -35.604255 -0.000000 7.846939
RightHand -7.172571 -0.000000 3.177556
RightHandThumb1 -24.326973 -0.000000 -32.862282
LeftUpLeg -12.369254 -29.460034 0.386670
LeftLeg 1.251078 -0.000000 -0.000000
LeftFoot -9.974755 6.665982 -14.088588
LeftToeBase 29.366532 -0.000000 -0.000000
RightUpLeg 11.056896 -31.940054 -6.805965
RightLeg -0.810538 -0.000000 0.000000
RightFoot -34.193043 -43.621729 26.528433
RightToeBase 20.379466 -0.000000 -0.000000
855
root 16.503024 35.257451 -22.160662 -165.081882 -59.977170 -192.487733
Spine -23.718723 56.932342 -19.716866
Head 13.027554 14.481236 1.610229
LeftShoulder -12.625888 -20.819060 17.778383
LeftArm -20.756385 3.913512 -17.612885
LeftForeArm 5.728451 -0.000000 -4.856889
LeftHand -12.237294 -0.000000 -2.931547
LeftHandThumb1 -26.253704 0.000000 33.147579
RightShoulder 9.236640 4.359499 -18.830221
RightArm 48.858319 8.579136 35.876371
RightForeArm -35.686661 -0.000000 7.931624
RightHand -7.172253 -0.000000 3.300170
RightHandThumb1 -24.326973 -0.000000 -32.862282
LeftUpLeg -12.284360 -29.094823 0.454126
LeftLeg 1.218920 -0.000000 -0.000000
LeftFoot -10.137528 7.123892 -14.137900
LeftToeBase 29.311617 -0.000000 -0.000000
RightUpLeg 10.901719 -31.616364 -6.774780
RightLeg -0.855896 -0.000000 0.000000
RightFoot -33.946999 -43.222506 26.375401
RightToeBase 19.885487 -0.000000 -0.000000
856
root 16.518411 35.266285 -22.157434 -165.526655 -59.181756 -192.035152
Spine -23.485255 56.625091 -19.351061
Head 13.037307 14.252850 1.635936
LeftShoulder -12.531828 -20.931762 17.738413
LeftArm -20.503170 3.883652 -17.418361
LeftForeArm 5.905009 -0.000000 -4.900590
LeftHand -12.196061 -0.000000 -3.013025
LeftHandThumb1 -26.253704 0.000000 33.147579
RightShoulder 8.992221 4.166134 -18.734819
RightArm 48.299333 8.748984 35.468072
RightForeArm -35.469208 -0.000000 7.879364
RightHand -7.187317 0.000000 3.343128
RightHandThumb1 -24.326973 -0.000000 -32.862282
LeftUpLeg -12.154887 -28.714378 0.496448
LeftLeg 1.183547 -0.000000 -0.000000
LeftFoot -10.331400 7.575233 -14.198682
LeftToeBase 29.368180 -0.000000 -0.000000
RightUpLeg 10.805812 -31.344387 -6.776878
RightLeg -0.933183 -0.000000 0.000000
RightFoot -33.609520 -42.797780 26.075222
RightToeBase 20.255092 -0.000000 -0.000000
